<svg width="40" height="48" viewBox="0 0 32 32" fill="none" xmlns="http://www.w3.org/2000/svg">
<path d="M4 15C4 15.2652 4.10536 15.5196 4.29289 15.7071C4.48043 15.8947 4.73478 16 5 16H24.586L20.294 20.292C20.1118 20.4806 20.011 20.7332 20.0133 20.9954C20.0156 21.2576 20.1208 21.5084 20.3062 21.6938C20.4916 21.8792 20.7424 21.9844 21.0046 21.9867C21.2668 21.989 21.5194 21.8882 21.708 21.706L27.708 15.706C27.8005 15.614 27.874 15.5046 27.9241 15.3842C27.9742 15.2637 28 15.1345 28 15.004V15C28 14.87 27.974 14.74 27.922 14.618C27.8722 14.4968 27.7987 14.3867 27.706 14.294L21.706 8.29402C21.5174 8.11186 21.2648 8.01107 21.0026 8.01334C20.7404 8.01562 20.4896 8.12079 20.3042 8.3062C20.1188 8.49161 20.0136 8.74242 20.0113 9.00462C20.009 9.26681 20.1098 9.51942 20.292 9.70802L24.586 14H5C4.73478 14 4.48043 14.1054 4.29289 14.2929C4.10536 14.4804 4 14.7348 4 15V15Z" fill="#D13232"/>
</svg>
