<svg width="25" height="25" viewBox="0 0 25 25" fill="none" xmlns="http://www.w3.org/2000/svg">
<path d="M0 12.5C0 9.04948 1.39974 5.92244 3.66211 3.66211C5.92448 1.39974 9.04948 0 12.5 0C15.9505 0 19.0776 1.39974 21.3379 3.66211C23.6003 5.92448 25 9.04948 25 12.5C25 15.9505 23.6003 19.0776 21.3379 21.3379C19.0776 23.6003 15.9526 25 12.5 25C9.04948 25 5.92448 23.6003 3.66211 21.3379C1.39974 19.0776 0 15.9526 0 12.5ZM18.7785 12.5C18.7785 13.3118 18.1193 13.9709 17.3096 13.9709C16.4998 13.9709 15.8407 13.3118 15.8407 12.5C15.8407 11.6882 16.4998 11.0291 17.3096 11.0291C18.1213 11.0291 18.7785 11.6882 18.7785 12.5ZM8.94979 12.5C8.94979 13.3118 8.29264 13.9709 7.48088 13.9709C6.66911 13.9709 6.01196 13.3118 6.01196 12.5C6.01196 11.6882 6.66911 11.0291 7.48088 11.0291C8.29264 11.0291 8.94979 11.6882 8.94979 12.5ZM13.8652 12.5C13.8652 13.3118 13.206 13.9709 12.3962 13.9709C11.5845 13.9709 10.9273 13.3118 10.9273 12.5C10.9273 11.6882 11.5865 11.0291 12.3962 11.0291C13.206 11.0291 13.8652 11.6882 13.8652 12.5ZM5.12695 5.12899C3.24097 7.01497 2.0752 9.62117 2.0752 12.5C2.0752 15.3788 3.243 17.985 5.12899 19.871C7.01497 21.759 9.62118 22.9248 12.5 22.9248C15.3788 22.9248 17.985 21.757 19.873 19.871C21.759 17.985 22.9268 15.3788 22.9268 12.498C22.9268 9.61711 21.759 7.01294 19.873 5.12695C17.9871 3.24096 15.3809 2.07316 12.5 2.07316C9.62118 2.07519 7.01497 3.24097 5.12695 5.12899Z" fill="#3379D5"/>
</svg>
