<svg width="13" height="18" viewBox="0 0 13 18" fill="none" xmlns="http://www.w3.org/2000/svg">
<path d="M12.0086 2.75C12.2653 2.75 12.4734 2.54012 12.4734 2.28125V0.71875C12.4734 0.459883 12.2653 0.25 12.0086 0.25H0.542684C0.28598 0.25 0.0778503 0.459883 0.0778503 0.71875V2.46672C0.0778503 2.72559 0.28598 2.93547 0.542684 2.93547H3.8461C4.90391 2.93547 5.71554 3.32445 6.20784 4H0.542684C0.28598 4 0.0778503 4.20988 0.0778503 4.46875V6.03125C0.0778503 6.29012 0.28598 6.5 0.542684 6.5H6.69231C6.45149 7.90961 5.41553 8.79031 3.79652 8.79031H0.542684C0.28598 8.79031 0.0778503 9.00019 0.0778503 9.25906V11.3298C0.0778503 11.4607 0.132081 11.5855 0.227411 11.6743L6.62088 17.6257C6.70675 17.7056 6.81931 17.75 6.93616 17.75H10.1343C10.5574 17.75 10.7605 17.2262 10.4496 16.9368L4.60498 11.4963C7.56825 11.4049 9.68499 9.41059 9.96288 6.5H12.0086C12.2653 6.5 12.4734 6.29012 12.4734 6.03125V4.46875C12.4734 4.20988 12.2653 4 12.0086 4H9.73515C9.60012 3.54918 9.41442 3.13102 9.18309 2.75H12.0086Z" fill="#D13232"/>
</svg>
