<svg width="25" height="25" viewBox="0 0 20 20" fill="none" xmlns="http://www.w3.org/2000/svg">
<path d="M2.83407 7.69135C3.16122 6.68393 3.70014 5.75918 4.41122 4.97548C4.53146 4.84295 4.72011 4.79571 4.88901 4.85585L6.58836 5.46085C7.04907 5.62479 7.55602 5.3858 7.72066 4.92706C7.73685 4.88195 7.74932 4.83561 7.75794 4.78856L8.08169 3.01915C8.11387 2.84323 8.24957 2.70406 8.42524 2.66683C8.93921 2.5579 9.46619 2.5025 10.0001 2.5025C10.5336 2.5025 11.0603 2.55784 11.574 2.66663C11.7496 2.70383 11.8853 2.8429 11.9175 3.01876L12.2422 4.78849C12.33 5.26773 12.7912 5.58538 13.2726 5.49799C13.32 5.48939 13.3665 5.47698 13.4117 5.46088L15.1111 4.85585C15.28 4.79571 15.4686 4.84295 15.5889 4.97548C16.3 5.75918 16.8389 6.68393 17.1661 7.69135C17.2212 7.8613 17.168 8.04763 17.0312 8.16323L15.6539 9.32763C15.281 9.64294 15.2354 10.1996 15.552 10.5709C15.5831 10.6074 15.6172 10.6414 15.6539 10.6723L17.0312 11.8368C17.168 11.9524 17.2212 12.1387 17.1661 12.3086C16.8389 13.3161 16.3 14.2409 15.5889 15.0245C15.4686 15.157 15.28 15.2042 15.1111 15.1441L13.4117 14.5391C12.9511 14.3752 12.4441 14.6142 12.2795 15.0729C12.2633 15.118 12.2508 15.1644 12.2422 15.2116L11.9175 16.9812C11.8853 17.1571 11.7496 17.2961 11.574 17.3334C11.0603 17.4421 10.5336 17.4975 10.0001 17.4975C9.46619 17.4975 8.93921 17.4421 8.42524 17.3331C8.24957 17.2959 8.11387 17.1567 8.08169 16.9809L7.75795 15.2115C7.67017 14.7322 7.20885 14.4146 6.72754 14.502C6.6802 14.5106 6.63366 14.523 6.58844 14.5391L4.88901 15.1441C4.72011 15.2042 4.53146 15.157 4.41122 15.0245C3.70014 14.2409 3.16122 13.3161 2.83407 12.3086C2.77889 12.1387 2.8321 11.9524 2.96886 11.8368L4.34624 10.6724C4.71917 10.357 4.76479 9.8004 4.44812 9.42907C4.41699 9.39255 4.38291 9.35863 4.34625 9.32764L2.96886 8.16323C2.8321 8.04763 2.77889 7.8613 2.83407 7.69135ZM7.81242 9.99991C7.81242 11.208 8.7918 12.1874 9.99992 12.1874C11.208 12.1874 12.1874 11.208 12.1874 9.99991C12.1874 8.79179 11.208 7.81241 9.99992 7.81241C8.7918 7.81241 7.81242 8.79179 7.81242 9.99991Z" fill="#C82D2D"/>
</svg>
