<svg width="49" height="48" viewBox="0 0 49 48" fill="none" xmlns="http://www.w3.org/2000/svg">
<path d="M36.1198 8L28.1227 16H34.1205V30C34.1205 32.21 32.3312 34 30.1219 34C27.9127 34 26.1234 32.21 26.1234 30V16C26.1234 11.59 22.5347 8 18.1262 8C13.7178 8 10.1291 11.59 10.1291 16V30H4.13126L12.1284 38L20.1255 30H14.1277V16C14.1277 13.79 15.917 12 18.1262 12C20.3355 12 22.1248 13.79 22.1248 16V30C22.1248 34.41 25.7135 38 30.1219 38C34.5304 38 38.1191 34.41 38.1191 30V16H44.1169L36.1198 8Z" fill="#D13232"/>
</svg>
