<svg width="20" height="18" viewBox="0 0 20 18" fill="none" xmlns="http://www.w3.org/2000/svg">
<path fill-rule="evenodd" clip-rule="evenodd" d="M19.5833 15.6667C19.5833 16.8175 18.6508 17.75 17.5 17.75H2.5C1.34917 17.75 0.416666 16.8175 0.416666 15.6667V3.58332C0.416666 2.6629 1.16292 1.91665 2.08333 1.91665H10.4879L13.8625 0.694155C14.0762 0.616238 14.3129 0.726655 14.3908 0.939571L14.7462 1.91665H16.25C17.1704 1.91665 17.9167 2.6629 17.9167 3.58332V4.41665C18.8371 4.41665 19.5833 5.1629 19.5833 6.08332V15.6667ZM2.08333 2.74999C1.62333 2.74999 1.25 3.12332 1.25 3.58332C1.25 4.04332 1.62333 4.41665 2.08333 4.41665H3.51875H3.5975C3.60292 4.41457 3.60625 4.40999 3.61167 4.4079L8.1875 2.74999H2.08333ZM14.1992 2.8254L13.7567 1.60707H13.7562L12.9017 1.91665H12.9029L10.6054 2.74999H10.6012L6.00167 4.41665H14.7775L14.1992 2.8254ZM17.0833 3.58332C17.0833 3.12332 16.71 2.74999 16.25 2.74999H15.0487L15.6546 4.41665H17.0833V3.58332ZM17.9167 5.24999H2.08333C1.77833 5.24999 1.49583 5.16207 1.25 5.01874V15.6667C1.25 16.3571 1.81 16.9167 2.5 16.9167H17.5C18.1904 16.9167 18.75 16.3571 18.75 15.6667V12.75H17.0833C16.1629 12.75 15.4167 12.0037 15.4167 11.0833C15.4167 10.1629 16.1629 9.41665 17.0833 9.41665H18.75V6.08332C18.75 5.62332 18.3767 5.24999 17.9167 5.24999ZM18.75 11.9167V10.25H17.0833C16.6233 10.25 16.25 10.6233 16.25 11.0833C16.25 11.5433 16.6233 11.9167 17.0833 11.9167H18.75ZM17.0833 10.6667H17.9167V11.5H17.0833V10.6667Z" fill="white"/>
</svg>
